<?xml version="1.0" encoding="UTF-8" standalone="no"?>
<!-- Created with Inkscape (http://www.inkscape.org/) -->

<svg
   width="1000"
   height="1000"
   viewBox="0 0 264.58333 264.58333"
   version="1.1"
   id="svg1"
   xml:space="preserve"
   inkscape:version="1.3.2 (091e20e, 2023-11-25, custom)"
   sodipodi:docname="favicon.svg"
   inkscape:export-filename="web-app-manifest-192x192.png"
   inkscape:export-xdpi="18.431999"
   inkscape:export-ydpi="18.431999"
   xmlns:inkscape="http://www.inkscape.org/namespaces/inkscape"
   xmlns:sodipodi="http://sodipodi.sourceforge.net/DTD/sodipodi-0.dtd"
   xmlns="http://www.w3.org/2000/svg"
   xmlns:svg="http://www.w3.org/2000/svg"><sodipodi:namedview
     id="namedview1"
     pagecolor="#4f4f4f"
     bordercolor="#ffffff"
     borderopacity="1"
     inkscape:showpageshadow="false"
     inkscape:pageopacity="0"
     inkscape:pagecheckerboard="true"
     inkscape:deskcolor="#505050"
     inkscape:document-units="px"
     showgrid="false"
     showguides="true"
     inkscape:lockguides="true"
     inkscape:zoom="0.45254834"
     inkscape:cx="300.52038"
     inkscape:cy="578.94368"
     inkscape:window-width="1536"
     inkscape:window-height="890"
     inkscape:window-x="-6"
     inkscape:window-y="-6"
     inkscape:window-maximized="1"
     inkscape:current-layer="layer1"
     borderlayer="true"
     showborder="true"
     labelstyle="default" /><defs
     id="defs1"><inkscape:path-effect
       effect="fillet_chamfer"
       id="path-effect1048663"
       is_visible="true"
       lpeversion="1"
       nodesatellites_param="C,0,0,1,0,0,0,1 @ C,0,0,1,0,4.4783382,0,1 @ C,0,0,1,0,15.587003,0,1 @ C,0,0,1,0,0,0,1"
       radius="0"
       unit="px"
       method="auto"
       mode="C"
       chamfer_steps="1"
       flexible="false"
       use_knot_distance="true"
       apply_no_radius="true"
       apply_with_radius="true"
       only_selected="false"
       hide_knots="false" /><inkscape:path-effect
       effect="fillet_chamfer"
       id="path-effect1048662"
       is_visible="true"
       lpeversion="1"
       nodesatellites_param="F,0,0,1,0,0,0,1 @ F,0,0,1,0,0,0,1 @ F,0,0,1,0,0,0,1 @ F,0,0,1,0,0,0,1"
       radius="4"
       unit="px"
       method="auto"
       mode="C"
       chamfer_steps="1"
       flexible="false"
       use_knot_distance="true"
       apply_no_radius="true"
       apply_with_radius="true"
       only_selected="true"
       hide_knots="false" /><linearGradient
       id="linearGradient40"><stop
         style="stop-color:#ffd941;stop-opacity:1;"
         offset="0"
         id="stop42" /><stop
         style="stop-color:#ffd941;stop-opacity:0;"
         offset="1"
         id="stop43" /></linearGradient><linearGradient
       id="swatch23"
       inkscape:swatch="solid"><stop
         style="stop-color:#ffd941;stop-opacity:1;"
         offset="0"
         id="stop23" /></linearGradient><linearGradient
       id="swatch22"
       inkscape:swatch="solid"><stop
         style="stop-color:#ffd941;stop-opacity:1;"
         offset="0"
         id="stop22" /></linearGradient><marker
       id="DistanceX"
       orient="auto"
       refX="0"
       refY="0"
       style="overflow:visible"><path
         d="M 3,-3 -3,3 M 0,-5 V 5"
         style="stroke:#000000;stroke-width:0.5"
         id="path1-5" /></marker><pattern
       id="Hatch"
       patternUnits="userSpaceOnUse"
       width="8"
       height="8"
       x="0"
       y="0"><path
         d="M8 4 l-4,4"
         stroke="#000000"
         stroke-width="0.25"
         linecap="square"
         id="path2-6" /><path
         d="M6 2 l-4,4"
         stroke="#000000"
         stroke-width="0.25"
         linecap="square"
         id="path3" /><path
         d="M4 0 l-4,4"
         stroke="#000000"
         stroke-width="0.25"
         linecap="square"
         id="path4" /></pattern><symbol
       id="*MODEL_SPACE" /><symbol
       id="*PAPER_SPACE" /><marker
       id="DistanceX-0"
       orient="auto"
       refX="0"
       refY="0"
       style="overflow:visible"><path
         d="M 3,-3 -3,3 M 0,-5 V 5"
         style="stroke:#000000;stroke-width:0.5"
         id="path1-1" /></marker><pattern
       id="Hatch-7"
       patternUnits="userSpaceOnUse"
       width="8"
       height="8"
       x="0"
       y="0"><path
         d="M8 4 l-4,4"
         stroke="#000000"
         stroke-width="0.25"
         linecap="square"
         id="path2-7" /><path
         d="M6 2 l-4,4"
         stroke="#000000"
         stroke-width="0.25"
         linecap="square"
         id="path3-1" /><path
         d="M4 0 l-4,4"
         stroke="#000000"
         stroke-width="0.25"
         linecap="square"
         id="path4-7" /></pattern><symbol
       id="*MODEL_SPACE-4" /><symbol
       id="*PAPER_SPACE-9" /><marker
       id="DistanceX-3"
       orient="auto"
       refX="0"
       refY="0"
       style="overflow:visible"><path
         d="M 3,-3 -3,3 M 0,-5 V 5"
         style="stroke:#000000;stroke-width:0.5"
         id="path1-4" /></marker><pattern
       id="Hatch-72"
       patternUnits="userSpaceOnUse"
       width="8"
       height="8"
       x="0"
       y="0"><path
         d="M8 4 l-4,4"
         stroke="#000000"
         stroke-width="0.25"
         linecap="square"
         id="path2-79" /><path
         d="M6 2 l-4,4"
         stroke="#000000"
         stroke-width="0.25"
         linecap="square"
         id="path3-7" /><path
         d="M4 0 l-4,4"
         stroke="#000000"
         stroke-width="0.25"
         linecap="square"
         id="path4-5" /></pattern><symbol
       id="*MODEL_SPACE-5" /><symbol
       id="*PAPER_SPACE-7" /><marker
       id="DistanceX-03"
       orient="auto"
       refX="0"
       refY="0"
       style="overflow:visible"><path
         d="M 3,-3 -3,3 M 0,-5 V 5"
         style="stroke:#000000;stroke-width:0.5"
         id="path1-45" /></marker><pattern
       id="Hatch-78"
       patternUnits="userSpaceOnUse"
       width="8"
       height="8"
       x="0"
       y="0"><path
         d="M8 4 l-4,4"
         stroke="#000000"
         stroke-width="0.25"
         linecap="square"
         id="path2-9" /><path
         d="M6 2 l-4,4"
         stroke="#000000"
         stroke-width="0.25"
         linecap="square"
         id="path3-6" /><path
         d="M4 0 l-4,4"
         stroke="#000000"
         stroke-width="0.25"
         linecap="square"
         id="path4-9" /></pattern><symbol
       id="*MODEL_SPACE-7" /><symbol
       id="*PAPER_SPACE-8" /><marker
       id="DistanceX-2"
       orient="auto"
       refX="0"
       refY="0"
       style="overflow:visible"><path
         d="M 3,-3 -3,3 M 0,-5 V 5"
         style="stroke:#000000;stroke-width:0.5"
         id="path1-3" /></marker><pattern
       id="Hatch-6"
       patternUnits="userSpaceOnUse"
       width="8"
       height="8"
       x="0"
       y="0"><path
         d="M8 4 l-4,4"
         stroke="#000000"
         stroke-width="0.25"
         linecap="square"
         id="path2-68" /><path
         d="M6 2 l-4,4"
         stroke="#000000"
         stroke-width="0.25"
         linecap="square"
         id="path3-3" /><path
         d="M4 0 l-4,4"
         stroke="#000000"
         stroke-width="0.25"
         linecap="square"
         id="path4-3" /></pattern><symbol
       id="*MODEL_SPACE-6" /><symbol
       id="*PAPER_SPACE-6" /></defs><g
     inkscape:label="Layer 1"
     inkscape:groupmode="layer"
     id="layer1"
     style="display:inline"><rect
       style="display:inline;fill:#000000;fill-opacity:1;fill-rule:nonzero;stroke-width:0.194355"
       id="rect1048652"
       width="264.58334"
       height="264.58334"
       x="-5.5511151e-17"
       y="0"
       ry="52.195194"
       rx="52.195194" /><circle
       style="mix-blend-mode:normal;fill:#eea71b;fill-opacity:1;stroke-width:0.301928"
       id="path2"
       cx="132.29167"
       cy="-132.29167"
       transform="rotate(90)"
       r="107.35334" /><g
       id="g1048666"
       transform="matrix(1.8163311,0,0,1.8163311,-57.768483,-118.43992)"
       style="stroke-width:0.559264"><circle
         style="mix-blend-mode:multiply;fill:#000000;fill-opacity:1;stroke-width:0.15512"
         id="path1"
         cx="107.29362"
         cy="141.05882"
         r="55.473686" /><g
         inkscape:label="0"
         id="g11"
         transform="matrix(0.00273297,-0.00425443,0.00425443,0.00273297,87.603842,115.45392)"
         style="fill:#103c6f;fill-opacity:1;stroke-width:0.559264"><path
           d="m 2752.0944,273.60511 a 2880,2880 0 0 0 -5632.0402,848.94859 2880,2880 0 0 0 5759.9466,-0.019 2880,2880 0 0 0 -127.9064,-848.92909 z M 1408.5635,823.15048 a 1440,1440 0 0 1 31.4621,299.33262 1440.0114,1440.0114 0 1 1 -2880.0227,0.023 1440,1440 0 0 1 2848.5606,-299.35552 z"
           style="fill:#103c6f;fill-opacity:1;stroke:#000000;stroke-width:0.559264"
           id="path1048665" /><path
           d="m -110.49954,4807.9451 a 192,192 0 0 0 -116.72884,-333.1177 3360,3360 0 0 1 -3034.69252,-2546.4093 192,192 0 0 0 -348.3266,-57.1102 l -3321.1126,5213.1026 a 192,192 0 0 0 118.8474,290.2652 2640,2640 0 0 1 1838.3214,1542.5348 192,192 0 0 0 306.4931,66.6379 z"
           style="fill:#103c6f;fill-opacity:1;stroke:#000000;stroke-width:0.559264"
           id="path7" /><path
           d="m -422.16333,10687.085 a 192,192 0 0 0 -142.63956,-130.136 L -5163.8059,9564.0404 a 192,192 0 0 1 -145.698,-141.1657 2160,2160 0 1 0 -2365.4959,2667.5233 l 6550.464,825.68 a 192,192 0 0 0 209.51317,-239.743 1920,1920 0 0 1 450.29513,-1800.863 192,192 0 0 0 42.56417,-188.387 z M -6483.8364,9676.9252 a 960,960 0 0 1 38.9656,270.4524 960.02402,960.02402 0 0 1 -1920.048,0.024 960,960 0 0 1 1881.0824,-270.4765 z"
           style="fill:#103c6f;fill-opacity:1;stroke:#000000;stroke-width:0.559264"
           id="path1048664" /><path
           d="m 3892.0192,9944.515 a 192,192 0 0 0 -162.8685,-101.7631 l -126.7469,-4.369 a 192,192 0 0 0 -194.5085,151.9368 l -320.3366,1506.9863 a 192,192 0 0 1 -227.7698,147.827 l -563.3435,-119.715 a 192,192 0 0 1 -124.345,-88.272 1440,1440 0 0 0 -951.2346,-666.092 192,192 0 0 1 -125.4822,-86.592 l -305.19933,-488.426 a 192,192 0 0 1 61.10843,-264.5506 l 1306.5831,-816.4119 a 192,192 0 0 0 76.2777,-234.7571 l -47.5887,-117.705 A 192,192 0 0 0 1936.6384,8656.5402 L 25.251457,9428.7634 a 192,192 0 0 0 -119.918043,184.7611 l 50.032432,1433.0215 a 192,192 0 0 1 -53.386956,139.657 1440,1440 0 1 0 2331.17071,1632.245 192,192 0 0 1 113.003,-97.958 l 1363.6907,-443.012 a 192,192 0 0 0 132.5329,-175.971 l 71.9726,-2060.138 a 192,192 0 0 0 -22.3296,-96.854 z m -2255.8552,2052.71 a 720.00001,720.00001 0 0 1 24.4818,186.309 720.00001,720.00001 0 0 1 -1439.94874,0.05 720.00001,720.00001 0 0 1 1415.46694,-186.357 z"
           style="fill:#103c6f;fill-opacity:1;stroke:#000000;stroke-width:0.559264"
           id="path1048663" /></g></g><g
       id="g10"
       transform="matrix(1.7880637,0,0,1.7880637,-53.779865,-112.97415)"
       style="fill:#faefd1;fill-opacity:1;stroke-width:0.559264"><path
         style="fill:#faefd1;fill-opacity:1;stroke-width:0"
         d="m 60.889437,70.713522 -2.353299,29.846638 2.353299,94.80281 2.182059,-94.90312 z"
         id="path8"
         sodipodi:nodetypes="ccccc" /><path
         style="fill:#faefd1;fill-opacity:1;stroke-width:0"
         d="m 60.26932,98.121239 -21.682283,1.561941 21.959918,3.43699 18.088751,-2.85234 z"
         id="path9"
         sodipodi:nodetypes="ccccc" /><path
         style="fill:#faefd1;fill-opacity:1;stroke-width:0"
         d="m 38.97359,77.923884 19.783944,22.928596 11.985368,9.64676 -8.577765,-13.754009 z"
         id="path10"
         sodipodi:nodetypes="ccccc" /></g></g></svg>
